<svg xmlns="http://www.w3.org/2000/svg" xmlns:xlink="http://www.w3.org/1999/xlink" width="1920" zoomAndPan="magnify" viewBox="0 0 1440 809.999993" height="1080" preserveAspectRatio="xMidYMid meet" version="1.2"><defs><clipPath id="592a74e435"><path d="M 546.507812 254 L 893.757812 254 L 893.757812 556 L 546.507812 556 Z M 546.507812 254 "/></clipPath></defs><g id="7ab7c05acd"><path style=" stroke:none;fill-rule:nonzero;fill:#53c1de;fill-opacity:1;" d="M 751.140625 404.722656 C 751.140625 388.132812 737.257812 374.679688 720.132812 374.679688 C 703.007812 374.679688 689.121094 388.132812 689.121094 404.722656 C 689.121094 421.3125 703.007812 434.765625 720.132812 434.765625 C 737.257812 434.765625 751.140625 421.3125 751.140625 404.722656 Z M 751.140625 404.722656 "/><g clip-rule="nonzero" clip-path="url(#592a74e435)"><path style=" stroke:none;fill-rule:evenodd;fill:#53c1de;fill-opacity:1;" d="M 820.839844 348.949219 C 827.386719 323.167969 835.617188 275.363281 806.601562 259.15625 C 777.71875 243.015625 740.136719 273.9375 720.292969 292.5 C 700.503906 274.125 661.867188 243.335938 632.875 259.59375 C 604.003906 275.785156 612.90625 322.796875 619.601562 348.738281 C 592.671875 356.148438 546.507812 372.109375 546.507812 404.722656 C 546.507812 437.238281 592.621094 454.605469 619.394531 462.007812 C 612.675781 488.09375 604.21875 534.433594 633.125 550.589844 C 662.226562 566.84375 700.742188 536.789062 720.773438 518.027344 C 740.746094 536.695312 777.964844 566.949219 806.851562 550.746094 C 835.828125 534.496094 828.28125 487.332031 821.589844 461.238281 C 847.539062 453.820312 893.757812 436.832031 893.757812 404.722656 C 893.757812 372.425781 847.34375 356.332031 820.839844 348.949219 Z M 817.546875 447.414062 C 813.152344 433.933594 807.222656 419.601562 799.964844 404.792969 C 806.890625 390.335938 812.59375 376.1875 816.867188 362.792969 C 836.296875 368.253906 878.921875 380.726562 878.921875 404.722656 C 878.921875 428.941406 838.019531 441.535156 817.546875 447.414062 Z M 799.417969 538.308594 C 777.867188 550.394531 745.851562 521.464844 731.101562 507.714844 C 740.886719 497.347656 750.664062 485.292969 760.210938 471.910156 C 776.996094 470.464844 792.855469 468.105469 807.238281 464.886719 C 811.949219 483.339844 821.066406 526.167969 799.417969 538.308594 Z M 640.535156 538.136719 C 618.980469 526.097656 628.835938 484.742188 633.777344 465.527344 C 648 468.578125 663.746094 470.769531 680.574219 472.09375 C 690.179688 485.191406 700.242188 497.230469 710.378906 507.773438 C 697.851562 519.511719 662.191406 550.234375 640.535156 538.136719 Z M 561.339844 404.722656 C 561.339844 380.410156 603.710938 368.027344 623.585938 362.582031 C 627.929688 376.277344 633.628906 390.59375 640.507812 405.070312 C 633.542969 419.765625 627.761719 434.308594 623.375 448.164062 C 604.421875 442.910156 561.339844 429.046875 561.339844 404.722656 Z M 640.304688 272.03125 C 661.949219 259.894531 695.53125 289.453125 709.898438 302.757812 C 699.808594 313.253906 689.839844 325.203125 680.316406 338.222656 C 663.984375 339.691406 648.351562 342.046875 633.980469 345.199219 C 628.585938 324.277344 618.6875 284.15625 640.304688 272.03125 Z M 770.820312 353.84375 C 781.902344 355.199219 792.515625 357 802.484375 359.207031 C 799.492188 368.496094 795.761719 378.214844 791.371094 388.175781 C 785 376.46875 778.167969 365 770.820312 353.84375 Z M 720.296875 313.027344 C 727.136719 320.210938 733.992188 328.226562 740.730469 336.929688 C 727.058594 336.300781 713.363281 336.300781 699.691406 336.917969 C 706.4375 328.300781 713.347656 320.292969 720.296875 313.027344 Z M 649.019531 388.164062 C 644.699219 378.238281 641.003906 368.480469 637.984375 359.054688 C 647.894531 356.90625 658.460938 355.152344 669.46875 353.816406 C 662.101562 364.949219 655.277344 376.414062 649.019531 388.164062 Z M 669.785156 456.648438 C 658.410156 455.421875 647.6875 453.753906 637.78125 451.664062 C 640.847656 442.074219 644.625 432.105469 649.035156 421.964844 C 655.378906 433.835938 662.308594 445.414062 669.785156 456.648438 Z M 720.707031 497.429688 C 713.675781 490.078125 706.664062 481.949219 699.816406 473.207031 C 713.566406 473.730469 727.34375 473.730469 741.09375 473.136719 C 734.332031 482.039062 727.503906 490.179688 720.707031 497.429688 Z M 791.511719 421.449219 C 796.152344 431.699219 800.066406 441.613281 803.171875 451.042969 C 793.101562 453.269531 782.234375 455.0625 770.78125 456.394531 C 778.179688 445.027344 785.125 433.378906 791.511719 421.449219 Z M 751.929688 458.136719 C 730.898438 459.589844 709.730469 459.574219 688.691406 458.253906 C 676.734375 441.335938 666.09375 423.539062 656.90625 405.066406 C 666.046875 386.632812 676.613281 368.871094 688.511719 351.980469 C 709.570312 350.4375 730.753906 350.433594 751.8125 351.988281 C 763.609375 368.878906 774.15625 386.59375 783.511719 404.863281 C 774.269531 423.289062 763.648438 441.082031 751.929688 458.136719 Z M 799.191406 271.605469 C 820.839844 283.703125 811.203125 326.667969 806.476562 345.347656 C 792.070312 342.128906 776.421875 339.730469 760.046875 338.242188 C 750.503906 325.078125 740.617188 313.109375 730.691406 302.75 C 745.242188 289.160156 777.753906 259.625 799.191406 271.605469 Z M 799.191406 271.605469 "/></g></g></svg>