<svg width="1926" height="1086" viewBox="0 0 1926 1086" fill="none" xmlns="http://www.w3.org/2000/svg">
<path d="M1674 720V1083M1791 720V1083M1439 938H1922.5M3 3H1923V1083H3V3ZM132.414 945.57C132.414 961.271 118.89 974 102.207 974C85.5242 974 72 961.271 72 945.57C72 929.868 85.5242 917.139 102.207 917.139C118.89 917.139 132.414 929.868 132.414 945.57ZM123.53 871.829C123.53 883.114 113.784 892.263 101.763 892.263C89.7414 892.263 79.996 883.114 79.996 871.829C79.996 860.543 89.7414 851.394 101.763 851.394C113.784 851.394 123.53 860.543 123.53 871.829ZM118.199 811.859C118.199 819.955 110.84 826.518 101.763 826.518C92.6855 826.518 85.3267 819.955 85.3267 811.859C85.3267 803.762 92.6855 797.199 101.763 797.199C110.84 797.199 118.199 803.762 118.199 811.859ZM112.869 761.661C112.869 767.549 108.095 772.323 102.207 772.323C96.3191 772.323 91.5458 767.549 91.5458 761.661C91.5458 755.773 96.3191 751 102.207 751C108.095 751 112.869 755.773 112.869 761.661Z" stroke="white" stroke-width="6"/>
</svg>
